<svg xmlns="http://www.w3.org/2000/svg" viewBox="0 0 288.43 281.36"><defs><style>.cls-1{fill:#fff;}</style></defs><title>down_arrowAsset 2</title><g id="Layer_2" data-name="Layer 2"><g id="Layer_1-2" data-name="Layer 1"><path class="cls-1" d="M231.51,240.85,262,210.28c2-2,3.88-3.95,5.88-5.87,5.22-5,12.63-5,17.5.05,4.35,4.49,4.07,11.92-.8,16.81q-26.07,26.17-52.22,52.26c-1.4,1.4-2.76,2.84-4.18,4.21-4.95,4.78-12.13,4.85-17,0q-28.23-28.2-56.37-56.49c-5.1-5.13-5.06-12.61-.1-17.49,4.57-4.5,12-4.16,17,.86q16.81,16.76,33.57,33.57c.66.66,1.26,1.4,2.46,2.73v-5q0-111,0-221.91c0-3.12.25-6.12,2.1-8.77,2.91-4.16,8.45-6.24,13-4.89a12,12,0,0,1,8.61,11.49c.06,16.51,0,33,0,49.54q0,87.82,0,175.64Z"/><path class="cls-1" d="M92.94,170.34q-40.17,0-80.35,0c-7,0-12.1-4.63-12.56-11.18-.48-6.91,5-12.51,12.35-12.53q30.84-.06,61.67,0,49.52,0,99,0c8.63,0,14.67,7.85,12.08,15.58a12.25,12.25,0,0,1-11.87,8.13q-26.53,0-53.07,0Z"/><path class="cls-1" d="M116.93,86.39c18.49,0,37,0,55.47,0,5.32,0,9.45,1.81,11.93,6.66a11.55,11.55,0,0,1-8.65,16.85,36.32,36.32,0,0,1-5.62.31q-54.72,0-109.45,0c-5.59,0-9.77-2.11-12.07-7.34a11.48,11.48,0,0,1,9.38-16.22c3.82-.37,7.7-.19,11.56-.2Q93.2,86.38,116.93,86.39Z"/><path class="cls-1" d="M140.1,49.88c-10.77,0-21.55,0-32.33,0C100.26,49.86,95,44.82,95,37.71c0-6.51,5.52-11.55,12.79-11.56q32.64,0,65.26,0c7.32,0,12.78,5.35,12.72,12.34-.05,6.31-5.62,11.36-12.69,11.38C162.05,49.91,151.08,49.88,140.1,49.88Z"/></g></g></svg>