<svg xmlns="http://www.w3.org/2000/svg" viewBox="0 0 288.43 281.36"><defs><style>.cls-1{fill:#fff;}</style></defs><title>up_arrowAsset 3</title><g id="Layer_2" data-name="Layer 2"><g id="Layer_1-2" data-name="Layer 1"><path class="cls-1" d="M56.92,40.51,26.45,71.07c-2,2-3.88,4-5.88,5.87-5.23,5-12.63,5-17.5,0C-1.28,72.41-1,65,3.87,60.08Q29.94,33.92,56.09,7.83c1.4-1.4,2.75-2.84,4.17-4.22,5-4.78,12.14-4.85,17,0q28.23,28.2,56.37,56.49c5.1,5.13,5,12.61.09,17.49-4.56,4.49-12,4.16-17-.86Q99.88,60,83.12,43.15c-.67-.67-1.26-1.4-2.46-2.73v4.95q0,111,0,221.92c0,3.12-.25,6.11-2.1,8.76-2.91,4.17-8.45,6.25-13,4.9a12,12,0,0,1-8.61-11.49c0-16.52,0-33,0-49.55V40.51Z"/><path class="cls-1" d="M195.49,111q40.17,0,80.34,0c7,0,12.11,4.64,12.57,11.19.48,6.9-5,12.51-12.36,12.52q-30.83.06-61.66,0-49.51,0-99,0c-8.62,0-14.66-7.85-12.07-15.58A12.26,12.26,0,0,1,115.14,111q26.54,0,53.07,0Z"/><path class="cls-1" d="M171.49,195c-18.49,0-37,0-55.46,0-5.32,0-9.46-1.82-11.94-6.66a11.57,11.57,0,0,1,8.66-16.86,37.47,37.47,0,0,1,5.61-.3q54.74,0,109.45,0c5.6,0,9.78,2.11,12.07,7.34a11.47,11.47,0,0,1-9.38,16.21c-3.82.37-7.7.2-11.55.2Q195.22,195,171.49,195Z"/><path class="cls-1" d="M148.32,231.48c10.78,0,21.56,0,32.33,0,7.52,0,12.8,5.06,12.83,12.17,0,6.51-5.53,11.55-12.8,11.55q-32.62,0-65.25,0c-7.32,0-12.78-5.34-12.73-12.34,0-6.31,5.63-11.35,12.7-11.37C126.37,231.45,137.35,231.48,148.32,231.48Z"/></g></g></svg>