<svg xmlns="http://www.w3.org/2000/svg" viewBox="0 0 399.15 393.38"><defs><style>.cls-1{fill:#f5f7f7;}.cls-2{fill:#20272e;}.cls-3{fill:#3d434c;}.cls-4{fill:#f6fbfd;}.cls-5{fill:#fff;}</style></defs><title>register-imageAsset 7</title><g id="Layer_2" data-name="Layer 2"><g id="Layer_1-2" data-name="Layer 1"><path class="cls-1" d="M.09,50.61c.34-1.15.72-2.13,2.31-2,8.12.54,16.28-.46,24.39.62,11.12,1.48,18,9.14,17.73,19.8-.24,10.26-7.37,17.66-18.17,18.68a50.23,50.23,0,0,1-10,.26c-3.74-.4-4.66,1.09-4.38,4.44.2,2.3-.21,4.67.05,7,.43,3.87-.92,5.2-4.93,5-7.66-.39-6.69.91-6.73-7,0-9-.26-17.93-.41-26.89Zm12.1,17.55h.14c0,1.5,0,3.06-.05,4.49-.08,3.56.7,4.36,3.93,4,2.64-.28,5.33,0,8-.16,5.11-.39,8.37-4.29,7.75-9.06-.59-4.57-3.67-7.37-8.82-6.79A31.18,31.18,0,0,1,19,60.54c-2.22-.08-5.7-.45-6.16.4C11.81,62.89,12.32,65.7,12.19,68.16Z"/><path class="cls-1" d="M310,71.59c0-8.16.11-16.32-.06-24.48-.06-2.7.73-3.26,3.37-3.22,10.49.17,21,.22,31.47-.07,3.74-.11,5.35.82,4.72,4.65a8,8,0,0,0,0,2.49c.56,3.56-.51,5-4.49,4.77-6.48-.39-13,0-19.49-.22-2.76-.08-3.7.57-3.56,3.56.32,6.83.13,6.83,6.89,6.79,4.17,0,8.35.19,12.5-.07,3-.2,3.83.91,3.52,3.65a21.16,21.16,0,0,0,0,4.5c.29,2.65-.76,3.45-3.39,3.34-5.32-.22-10.66,0-16-.2-2.77-.12-4,.65-3.57,3.58a11.67,11.67,0,0,1,0,3.49c-.45,3,.53,4.09,3.75,3.94,6.49-.3,13,.06,19.49-.25,3.51-.17,4.94.84,4.44,4.4a17.76,17.76,0,0,0,0,4c.18,2.23-.46,3.36-3,3.34q-17-.15-34,0c-2.76,0-2.82-1.47-2.8-3.48.05-8.17,0-16.33,0-24.5Z"/><path class="cls-1" d="M88.46,104.27c-5,1.84-6.64-2.15-7.81-6.34-1-3.67-3-5.15-6.84-4.66a29.29,29.29,0,0,1-7.48.12c-7-.92-12.33.28-13.54,8.53-.46,3.14-3.22,2.27-5.24,2.31-8.68.15-8.69.11-5.44-8C47.82,82.08,53.46,67.88,59.3,53.76c1-2.33,1.16-5.73,5.37-5.35,3.79.34,7.23-.72,9.53,4.43C79,63.54,83.15,74.51,88,85.2,90.1,90,92.19,94.78,94.4,99.52s2.11,4.72-3.15,4.75Zm-20-21.18c2.2-.71,5.3,1.12,3.91-3.72C70.83,74,71.27,70,69.54,64.63c-.44-1.35-.85-5.46-3.17-4.74s-2.71,2.48-2.9,4.22c-.57,5.22-1.38,10-2.37,14.76s.18,4.37,4.37,4.37A20.7,20.7,0,0,1,68.48,83.09Z"/><path class="cls-1" d="M284.33,43.72a29.35,29.35,0,0,1,16.59,4.56c1.8,1.12,2.95,2.07,1,4.1a14.77,14.77,0,0,0-2.14,3.36c-1.55,3-3.23,4-6.46,1.68a15.22,15.22,0,0,0-11.42-2.58c-2.76.43-5.18,1.58-5.38,4.91s2.1,4.22,4.63,5c3.82,1.11,7.72,2,11.47,3.35,7.55,2.69,10.74,7.09,11.25,13.6C304.39,88,299,96.38,293,98.4c-10.89,3.66-20.88,1.52-30.14-4.94-1.57-1.09-1.85-2.22-.36-3.61A8.54,8.54,0,0,0,264.14,88c2.57-4.39,5.18-5.91,9.83-1.88,3,2.58,7.41,2.68,11.47,2.6,3.19-.06,5.65-1.28,6.17-4.61.5-3.17-2-4.35-4.42-5.15-3-1-6.07-1.73-9.12-2.52-10.21-2.61-14.65-8.26-13.84-17.66.73-8.34,7.62-14.41,17.1-15C282.33,43.66,283.33,43.72,284.33,43.72Z"/><path class="cls-1" d="M352.31,68.28c.36-7.67,3.74-16.1,13.24-21,9.94-5.13,19.82-5.19,29.36,1,1.52,1,4.93,1.78,4.12,3.43-1.65,3.32-4.49,6.09-7.11,8.84-.65.69-1.56-.84-2.32-1.41-6.36-4.83-12.54-5.34-18.28-1.53-5.38,3.58-8,11.12-6.33,18.2,2.68,11.34,13.6,16,23.29,9.63,2.94-2,4.31-1.46,6.35.74,5.72,6.19,5.77,7.16-2.46,11C373.17,105.83,352.46,94.84,352.31,68.28Z"/><path class="cls-1" d="M86.06,48.43c5,0,8.89.09,12.82,0,2-.07,2.44,1.25,3.19,2.56,2.73,4.76,5.65,9.4,8.29,14.21,1.88,3.43,3.41,3.09,5.14,0,2.42-4.36,5-8.64,7.27-13.06,1.38-2.66,3-3.89,6.23-3.48s6.27.09,10.19.09c-2.39,4.09-4.26,7.9-6.7,11.3-4.44,6.18-7.15,13.46-12.4,19.15-1,1.12-1,3.48-1,5.27-.05,5.32,0,10.65.24,16,.15,3.05-.84,4.07-3.94,4-10.43-.36-9,1.17-8.26-8.29.72-9.81-1.52-18.07-7.41-25.93C94.9,63.65,91,56.42,86.06,48.43Z"/><path class="cls-1" d="M258.34,58.06c-.75,9.13,1.52,21.36-1.86,33.32-6.74,23.82-22.36,39.71-43.93,51-8.77,4.58-16.42,3.29-24.19-.8-23.18-12.22-40.89-29-44.51-56.55-1-7.38-.54-15-.59-22.45-.07-11.66.1-23.32-.07-35,0-2.8,1-4,3.36-5.25,16.76-8.59,34.41-15,52-21.64a9.32,9.32,0,0,1,8.2.58c10.13,5,21.55,8.34,31.66,13.4,5.79,2.9,11.67,5.68,17.64,8.18,2.28,1,2.32,2.38,2.31,4.28C258.32,36.45,258.34,45.78,258.34,58.06ZM153.91,85.5c3.64,22.33,18.56,36.31,37.5,46.85,6.59,3.67,12.69,3.83,19-.34,3.61-2.38,7.67-4.12,11.07-6.73C238.3,112.39,248.74,96,248.58,74.1c-.1-13.65-.12-27.3-.21-41,0-1.4.66-3.07-1.23-3.91-5.15-2.3-10.22-4.82-15.47-6.86-8.38-3.26-16.93-6.08-25.31-9.34-3-1.18-5.81-2.19-9-1.06Q175.8,19.52,155,28.9c-1.45.65-2.29,1.29-2.25,3.25.18,8.32.08,16.64.08,25"/><path class="cls-2" d="M152.83,57.11c0-8.32.1-16.64-.08-25,0-2,.8-2.6,2.25-3.25,13.86-6.28,28.69-11.72,43-16.75,3.22-1.13,10.84.8,13.85,2,8.37,3.27,11.4,5,19.78,8.24,5.25,2,10.32,4.56,15.47,6.86,1.89.84,1.22,2.51,1.23,3.91.09,13.66.11,27.31.21,41,.16,21.94-10.28,38.29-27.09,51.18-3.4,2.61-7.46,4.35-11.07,6.73-6.32,4.17-12.42,4-19,.34-18.94-10.54-33.86-24.52-37.5-46.85-1.5-9.23-1.08-18.91-1.08-28.39Z"/><path class="cls-2" d="M170.87,71.48c4.09,1,8.24.42,12.36.33,3-.06,5.67.43,5.59,3.88-.07,2.92-2.58,4-5.33,4l-12.92.14c-1.48,0-2.95-.11-4.43-.09-4.76,0-4.49,1.65-4.25,6,.28,5,5.41,3.82,9,3.73,4.48-.1,9-.12,13.45-.33,2.81-.14,4.78,1,4.82,3.75s-2.13,3.87-4.8,3.85c-2.49,0-5-.14-7.47,0-2.07.15-5-1.21-6,.78-1.3,2.41.57,5,1.52,7.5,1.1,2.88,3.17,1.17,4.58,1.19,16.28.25,32.57.22,48.86.42,5.62.07,4-4.19,4.47-7.07.66-3.67-2.14-2.88-4.17-2.86-2.66,0-5.32.13-8,.28-2.9.16-4.45-1.3-4.57-4-.14-3,1.83-4,4.53-3.94,4,.13,8,.31,11.95.47,1,.08,2,.21,3,.21,5.89,0,6.62-.61,6.73-6.43.09-5.09-4-3-6.45-3.54a14.84,14.84,0,0,0-3,0c-4,0-7.94,0-11.9,0-3.11,0-4.63-2-4.64-4.71s2.15-3.31,4.58-3.28c4,0,7.93-.09,11.89-.15,2,.28,3.95.52,5.91.86,2.38.4,4.12-.28,4.16-2.9.13-11,.29-22,.13-33-.06-3.65-4-4.45-6.27-4.5-3.12-.06-1.93,3.4-1.62,5.18,1.13,6.47.49,13,.82,19.44a5.31,5.31,0,0,1-3.6,5.81c-1.32-.06-2.64-.15-4-.15-18.28,0-36.56.46-54.84-.33-2-.66-2.37,2.1-3.56-2.45,2-2,2.07-2.25,2-5.4-.15-6,0-12-.07-17.95-.06-3.39-1.63-4.37-4.88-2.85-2.5,1.17-3.3,2.84-3.24,5.5.17,8,.07,16,.21,23.93C161.53,71.1,162.55,72,170.87,71.48Z"/><path class="cls-2" d="M177,49.7c-.12,4.9-.12,5,3.46,5,3.18,0,7.37,1.56,6.53-4.59-.45-3.22.9-6.19,3-8.71,4-4.65,9.86-6.43,15.25-4.58,5.77,2,9.55,7.17,10.15,13.53.15,1.54-1.2,3.73,1.61,4.51,6.47,1.79,8.52.14,7.64-6.29-.11-.82-.19-1.65-.36-2.46A23.46,23.46,0,0,0,198.8,27.28C186.3,28.42,177.31,37.67,177,49.7Z"/><path class="cls-2" d="M204.42,120.09c-.38-2,1.27-5.7-3.26-5.39s-3.39,4.11-3.76,6.85c-.35,2.56.31,4.94,3.36,5C205.08,126.55,204.37,123.14,204.42,120.09Z"/><path class="cls-2" d="M187,113.74c-1.55.13-3.82-.27-3.47,2.23.43,3,3.23,4.15,5.67,4.86,1.67.48,1.18-1.54,1.25-2.54C190.6,115.84,190.57,113.43,187,113.74Z"/><path class="cls-2" d="M215.89,114.62c-2.6-.31-3.8.86-3.62,3.38.07,1.09,0,2.8,1.61,2.33,2.1-.59,4.82-1.08,5.14-3.85C219.27,114.28,217.25,114.65,215.89,114.62Z"/><path class="cls-1" d="M170.94,62.07c18.28.79,36.56.3,54.84.33,1.32,0,2.64.09,4,.15.16,3,.31,6.06.47,9.09-4,.06-7.93.19-11.89.15-2.43,0-4.59.59-4.58,3.28s1.53,4.7,4.64,4.71c4,0,7.93,0,11.9,0a44.17,44.17,0,0,1-.27,9.76c-4-.16-8-.34-11.95-.47-2.7-.09-4.67.92-4.53,3.94.12,2.74,1.67,4.2,4.57,4,2.65-.15,5.31-.25,8-.28,2,0,4.83-.81,4.17,2.86-.51,2.88,1.15,7.14-4.47,7.07-16.29-.2-32.58-.17-48.86-.42-1.41,0-3.48,1.69-4.58-1.19-1-2.49-2.82-5.09-1.52-7.5,1.08-2,4-.63,6-.78,2.48-.18,5-.06,7.47,0,2.67,0,4.84-1,4.8-3.85s-2-3.89-4.82-3.75c-4.48.21-9,.23-13.45.33-.84-3.2-.34-6.44-.27-9.67l12.92-.14c2.75,0,5.26-1.07,5.33-4,.08-3.45-2.56-3.94-5.59-3.88-4.12.09-8.27.7-12.36-.33C170.89,68.35,170.92,65.21,170.94,62.07Zm30.71,35.74c5.71.15,5.75.14,4.45-5.72-.84-3.77-2-7.11,1.4-10.81,2.64-2.86.93-6.74-2-9.21s-6-2-8.57.48c-3,2.85-5.09,6.75-1.87,10.07,2.94,3,2.21,5.69,1.62,8.89C195.52,97.64,195.57,97.65,201.65,97.81Z"/><path class="cls-1" d="M177,49.7c.3-12,9.29-21.28,21.79-22.42a23.46,23.46,0,0,1,25.53,18.85c.17.81.25,1.64.36,2.46.88,6.43-1.17,8.08-7.64,6.29-2.81-.78-1.46-3-1.61-4.51-.6-6.36-4.38-11.55-10.15-13.53C199.9,35,194,36.77,190,41.42c-2.14,2.52-3.49,5.49-3,8.71.84,6.15-3.35,4.62-6.53,4.59C176.89,54.68,176.89,54.6,177,49.7Z"/><path class="cls-3" d="M230.21,71.64c-.16-3-.31-6.06-.47-9.09a5.31,5.31,0,0,0,3.6-5.81c-.33-6.47.31-13-.82-19.44-.31-1.78-1.5-5.24,1.62-5.18,2.26.05,6.21.85,6.27,4.5.16,11,0,22-.13,33,0,2.62-1.78,3.3-4.16,2.9C234.16,72.16,232.18,71.92,230.21,71.64Z"/><path class="cls-3" d="M170.94,62.07c0,3.14-.05,6.28-.07,9.41-8.32.49-9.34-.38-9.49-8.63-.14-8,0-16-.21-23.93-.06-2.66.74-4.33,3.24-5.5,3.25-1.52,4.82-.54,4.88,2.85.11,6-.08,12,.07,17.95a50.93,50.93,0,0,1,.1,5.11C169.46,63.38,169,61.41,170.94,62.07Z"/><path class="cls-3" d="M230,89.53c1.12-3.22.71-6.49.27-9.76a14.84,14.84,0,0,1,3,0c2.49.52,6.54-1.55,6.45,3.54-.11,5.82-.84,6.47-6.73,6.43C232,89.74,231,89.61,230,89.53Z"/><path class="cls-3" d="M170.57,79.82c-.07,3.23-.57,6.47.27,9.67-3.54.09-8.8,1.19-9-3.73s-.51-6,4.25-6C167.62,79.71,169.09,79.78,170.57,79.82Z"/><path class="cls-3" d="M204.42,120.09c0,3,.66,6.46-3.66,6.43-3,0-3.71-2.41-3.36-5,.37-2.74-.7-6.54,3.76-6.85S204,118.07,204.42,120.09Z"/><path class="cls-3" d="M187,113.74c3.59-.31,3.62,2.1,3.45,4.55-.07,1,.42,3-1.25,2.54-2.44-.71-5.24-1.87-5.67-4.86C183.16,113.47,185.43,113.87,187,113.74Z"/><path class="cls-3" d="M215.89,114.62c1.36,0,3.38-.34,3.13,1.86-.32,2.77-3,3.26-5.14,3.85-1.64.47-1.54-1.24-1.61-2.33C212.09,115.48,213.29,114.31,215.89,114.62Z"/><path class="cls-2" d="M201.65,97.81c-6.08-.16-6.13-.17-5-6.3.59-3.2,1.32-5.85-1.62-8.89-3.22-3.32-1.12-7.22,1.87-10.07,2.6-2.49,5.73-2.85,8.57-.48s4.66,6.35,2,9.21c-3.4,3.7-2.24,7-1.4,10.81C207.4,98,207.36,98,201.65,97.81Z"/><path class="cls-4" d="M204.15,393.38c-41.47,0-74.46-32.78-74.09-74.46.36-42,35.19-73.27,72.68-73.25,41.55,0,75.35,32.84,75.35,73.22C278.09,360.26,245.25,393.35,204.15,393.38Zm.19-52.05c21,0,42.06-.07,63.09.08,2.95,0,4-.88,4.66-3.64,3-12.79,2.32-25.46-.63-38.14-.41-1.77-1.39-1.91-2.85-1.91q-64.62,0-129.24,0c-2,0-2.57.72-3,2.47a70.47,70.47,0,0,0-.07,38c.73,2.6,1.86,3.21,4.38,3.2C161.88,341.29,183.11,341.33,204.34,341.33Zm17.93-46.9c4.9,0,9.8,0,14.7,0,1.67,0,2-.4,1.62-2.13-1.5-6.44-4.46-12.2-7.66-17.89a2.43,2.43,0,0,0-2.54-1.18c-6.74,0-13.48.1-20.21,0-2,0-2.34.74-2.31,2.49.1,5.41.14,10.82,0,16.23-.06,2.14.75,2.56,2.64,2.52C213.08,294.37,217.67,294.43,222.27,294.43Zm-36.93,50.2c-4.68,0-9.37.07-14.06,0-1.87,0-2.16.47-1.72,2.28,1.53,6.28,4.33,12,7.45,17.59a2.42,2.42,0,0,0,2.45,1.34c6.93,0,13.86-.06,20.78,0,1.6,0,2.12-.46,2.09-2.07-.12-5.6-.2-11.21-.11-16.81,0-2-.76-2.37-2.51-2.34C194.92,344.69,190.13,344.63,185.34,344.63Zm37.11.32c-4.59,0-9.19.09-13.78,0-2-.06-2.89.32-2.82,2.61.18,5.31.12,10.62,0,15.93,0,1.79.34,2.53,2.33,2.49,6.74-.12,13.48-.07,20.22,0a2.76,2.76,0,0,0,2.75-1.44,67.58,67.58,0,0,0,7.48-17.61c.38-1.56,0-2-1.49-1.94C232.25,345,227.35,345,222.45,345Zm-36.82-50.84c4.69,0,9.38-.07,14.06,0,1.86,0,2.72-.3,2.66-2.45-.16-5.4-.11-10.8,0-16.2,0-1.69-.44-2.28-2.21-2.26q-10.23.13-20.48,0a2.84,2.84,0,0,0-2.82,1.73,71.9,71.9,0,0,0-6.92,16.52c-.52,1.9-.34,2.76,2,2.67C176.46,294,181.05,294.11,185.63,294.11Zm-12.07,71.68a91.34,91.34,0,0,1-8-19.92c-.32-1.3-1.11-1.24-2-1.24-7.55,0-15.1,0-22.64,0-2.12,0-2.08.7-1.34,2.36a92.65,92.65,0,0,0,10.64,17.76,2.53,2.53,0,0,0,2.3,1.08C159.34,365.78,166.18,365.79,173.56,365.79Zm60.91.1H256a2.12,2.12,0,0,0,1.86-.82c4.76-6.1,9.13-12.43,11.65-20.12-8.61,0-17,0-25.32,0-1.11,0-1.75.39-2,1.43A56.15,56.15,0,0,1,234.47,365.89Zm-60.94-92.73c-5.79,0-11.1.32-16.35-.09-4.55-.36-7.39,1.1-10,4.94a86,86,0,0,0-8.67,16.1c8.63,0,16.88,0,25.13,0,1.5,0,1.93-.69,2.19-1.86A68.49,68.49,0,0,1,173.53,273.16Zm61.11,0a64.22,64.22,0,0,1,7.53,19.67c.27,1.37,1.36,1.27,2.4,1.27,7.45,0,14.91,0,22.36,0,1.83,0,2.24-.28,1.53-2.21-2.48-6.69-6.38-12.47-10.8-18a1.84,1.84,0,0,0-1.54-.79Zm-79.6-4,.25.9c6.06,0,12.12-.07,18.17,0a3.84,3.84,0,0,0,3.67-2,65.31,65.31,0,0,1,11.93-13c2-1.67,4.11-3.12,6.18-4.66C179.47,252,166.22,258.48,155,269.19Zm.45,100.38c8.68,10.92,30.72,20.2,39.95,19a82.74,82.74,0,0,1-18.23-17.94,2.55,2.55,0,0,0-2.32-1.11C168.59,369.58,162.3,369.57,155.49,369.57ZM213,389.24c15.57-1.77,28.77-8.44,40.44-19.67-7,0-13.39,0-19.78,0a2.33,2.33,0,0,0-2,1.13C226.3,377.66,220.45,384.15,213,389.24Zm.75-139.07c5,4.11,10.18,8.13,13.71,13.44,3.38,5.08,7.49,6.6,13.23,6,3.95-.43,8-.08,12.54-.08C241.81,258.34,228.86,252,213.75,250.17ZM227,269.49c0-.49,0-.72-.06-.86-4.93-7.58-11.85-13-19.17-18.08-1.49-1-1.87-.44-1.85,1.14.05,5.29,0,10.59,0,15.89,0,1.16.14,1.94,1.61,1.93C214,269.47,220.46,269.49,227,269.49Zm.75,100.08c-7.17,0-13.57,0-20,0-1.23,0-1.88.3-1.86,1.7.05,5.51,0,11,0,16.52,0,1.48.58,1.51,1.64.82A78.3,78.3,0,0,0,227.72,369.57Zm-25.56,19.68c0-6.43,0-12.32,0-18.21,0-.86-.06-1.67-1.23-1.67h-20.2C186.48,377.85,193.92,383.56,202.16,389.25ZM180.47,269.49c7.38,0,13.87,0,20.36,0,1,0,1.46-.45,1.46-1.46,0-6,0-11.9,0-18.39C194.19,255.64,187,261.61,180.47,269.49Z"/><path class="cls-4" d="M190.22,323.46c2.69-4.95,5.65-9.69,7.73-14.88.11-.28.38-.57.35-.83-.45-4.81,2.81-3.91,5.87-3.69-5.47,9.61-10.17,19.5-15.13,29.25-.69,1.36-1.67,1.16-2.76,1.23-1.44.1-1.3-1-1.4-1.83-.61-5.45-1.21-10.9-1.9-17.19-2.36,4.42-4.4,8.21-6.42,12-1,1.88-2,3.77-2.94,5.68a2.51,2.51,0,0,1-2.87,1.71c-1.59-.24-1.09-1.51-1.2-2.39-1-8-1.9-16-2.74-24a21.51,21.51,0,0,0-1.23-4.49h8.5c-2,6.66.72,13.08.55,19.92,1.31-.84,1.61-2.05,2.16-3.05,2.7-4.9,5.39-9.81,8-14.74.58-1.1,1.21-1.84,2.57-1.61,1.53.26,1.2,1.55,1.22,2.42A121.27,121.27,0,0,0,190.22,323.46Z"/><path class="cls-4" d="M245.67,303.93l-2.2,5.76c-1.28-1.59-2.3-3-4.16-3.31-4.91-.84-5.84-.28-7.21,4.58a31.59,31.59,0,0,1-1.28,4.38c-1.14,2.51.14,2.77,2.13,2.6.71-.06,1.43,0,2.14-.07,4.19-.25,4.19-.26,2.89,4.24-1.22-.88-2.33-1.76-4-1.81-4.45-.13-4.5-.23-5.7,4.15-.82,3-2.37,5.9-2.13,9.17.08,1-.42,1.27-1.24,1.28-2.4,0-4.81,0-7.7,0,2.28-2.56,2.78-5.26,3.48-7.86,2-7.23,4.68-14.26,5.64-21.74.17-1.34.92-1.37,1.89-1.37Z"/><path class="cls-4" d="M141.11,328c1.62,3.94,4.51,5.32,8.38,5a5.48,5.48,0,0,0,5.18-3.64c.87-2.37-.22-4.25-1.81-5.76-1.76-1.68-3.85-3-5.69-4.62-5-4.41-4.45-10.56,1.32-13.91,4.06-2.36,8.36-2.12,12.7-.85a1.39,1.39,0,0,1,1.14,1.81c-.28,1.25-.67,2.47-1.19,4.36-1.3-3.55-3.27-5.24-6.55-4.92-2.32.22-4.16,1.21-4.89,3.5s.15,4.42,2.12,5.89c1.71,1.28,3.58,2.35,5.28,3.64,3.65,2.77,4.75,5.75,3.66,9.54a9,9,0,0,1-8.58,7,26.82,26.82,0,0,1-9.08-.77c-2.74-.73-3.54-2-2.35-4.58A7.55,7.55,0,0,0,141.11,328Z"/><path class="cls-4" d="M245.56,308.06c.57-3.09,2.46-3.76,5.45-3.6,5.18.28,10.39.23,15.58,0,2.81-.12,3.43.64,2.17,3.09-.3.6-.48,1.27-.73,1.93-1.22-.24-1.46-1.43-2.28-2-2.85-1.94-5.45-1.11-6.36,2.12-1.89,6.72-3.8,13.43-5.61,20.17-.42,1.59,0,4.33-.79,4.71-1.7.78-4,.36-6,.41-.6,0-1.2-.05-1.93-.08,3.51-8.53,5.3-17.46,8.11-26.07.76-2.33-.05-2.51-2-2.49a6.83,6.83,0,0,0-5.11,2.32Z"/><path class="cls-4" d="M209.88,304h7.52a181.36,181.36,0,0,0-8.58,30.4h-7.56A177.37,177.37,0,0,0,209.88,304Z"/><path class="cls-4" d="M246.1,308.6l-.81.64a.75.75,0,0,1,.27-1.18Z"/><path class="cls-5" d="M205.9,246.77c-7.51.65-7.67.64-7.4-6.51.13-3.54-.28-5.88-4-7.67-4.22-2-6.09-6.31-6.21-11.07-.1-3.64-.1-7.29,0-10.92.22-5.77,3.1-9.89,8.26-12.33,1.35-.65,2.17-1.12,2.18-2.88s-.88-2.23-2.19-2.88c-5.12-2.52-8-6.66-8.11-12.43-.09-3.53-.05-7.06.06-10.59.19-5.75,2.89-10,8.1-12.4,1.77-.81,2.4-1.63,2.28-3.51-.2-3.18-.16-6.37-.22-9.52,7.52-.61,7.68-.61,7.41,6.53-.13,3.53.28,5.89,4,7.68,4.24,2,6.06,6.32,6.2,11.06.11,3.64.09,7.29,0,10.93-.2,5.77-3.09,9.88-8.25,12.33-1.35.64-2.18,1.1-2.19,2.87s.88,2.22,2.19,2.88c5.24,2.6,8,6.87,8.11,12.78q.06,4.95,0,9.91c-.11,6-2.87,10.45-8.41,12.88-1.54.68-2,1.42-2,3C205.85,240.2,205.84,243.5,205.9,246.77Zm-7.18-41.5c-4.59,4.35-4.45,18.1-.67,20.47,1.93-1-1.58-4.18,2.08-4.49,1.69-.14,3.66-.47,5,.21,1.64.82-.13,3.25,1,4.75,3.91-3.74,3.91-16.93.12-20.23-1.64,1.24,1.67,4.87-2.93,5.07C199.05,211.23,197.75,209.7,198.72,205.27ZM206.56,185c3.81-4.36,3.59-17.43-.24-20.15-1.41,1.26,1.73,4.63-2.19,4.72-1.71,0-3.79.5-5-.29s.21-3.14-.69-4.7c-3.88,3.57-4,16.69.38,20.93-.91-4.41.36-6,4.69-5.75C208.09,180,204.76,183.63,206.56,185Z"/><path class="cls-5" d="M21.26,189.11a20,20,0,0,1-4.19-.42,15.74,15.74,0,0,1-3.67-1.26,15.49,15.49,0,0,1-3.2-2.1l2.66-3.28a11.92,11.92,0,0,0,3.84,2.27,13.47,13.47,0,0,0,4.56.76,9.12,9.12,0,0,0,5.14-1.24,4,4,0,0,0,1.83-3.47v0a3.65,3.65,0,0,0-.92-2.67,5.75,5.75,0,0,0-2.43-1.37,27,27,0,0,0-3.28-.75q-1.73-.28-3.48-.69a11.18,11.18,0,0,1-3.22-1.25,6.23,6.23,0,0,1-2.36-2.44,8.71,8.71,0,0,1-.9-4.27v0a8.08,8.08,0,0,1,2.84-6.6q2.84-2.34,8-2.34a14.92,14.92,0,0,1,4.81.79,16.75,16.75,0,0,1,4.57,2.4l-2.43,3.4A13.46,13.46,0,0,0,26,162.61a10.07,10.07,0,0,0-3.47-.63,8.2,8.2,0,0,0-4.86,1.25,4.09,4.09,0,0,0-1.73,3.54v0a3.33,3.33,0,0,0,1,2.62,6.39,6.39,0,0,0,2.64,1.34c1.08.28,2.25.55,3.49.8s2.24.5,3.36.81a11.17,11.17,0,0,1,3.06,1.37,6.42,6.42,0,0,1,2.2,2.44,8.54,8.54,0,0,1,.83,4.06v0a7.83,7.83,0,0,1-2.94,6.53C27.57,188.34,24.82,189.11,21.26,189.11Z"/><path class="cls-5" d="M47.06,189.11A9.47,9.47,0,0,1,40,186.57q-2.5-2.55-2.5-7.23v-2.45q0-4.87,2.41-7.54a8.64,8.64,0,0,1,6.77-2.67,7.49,7.49,0,0,1,6.37,3c1.5,2,2.26,4.84,2.26,8.48v1.43H40.62v-3.45H51.24A7.29,7.29,0,0,0,49.87,172a3.84,3.84,0,0,0-3.18-1.49,4.65,4.65,0,0,0-3.76,1.59,6.81,6.81,0,0,0-1.35,4.52v2.77A5.63,5.63,0,0,0,43,183.58a5.43,5.43,0,0,0,4,1.45,6.8,6.8,0,0,0,2.59-.52A7.6,7.6,0,0,0,51.94,183l2.81,2.81a11.92,11.92,0,0,1-3.63,2.41A10.52,10.52,0,0,1,47.06,189.11Z"/><path class="cls-5" d="M70,189.11a8.59,8.59,0,0,1-9.42-9.47v-3.59A9.33,9.33,0,0,1,63,169.13a9.48,9.48,0,0,1,7-2.45,11.24,11.24,0,0,1,4.62.91,7.83,7.83,0,0,1,3.28,2.58l-3.09,2.77a6.26,6.26,0,0,0-2.14-1.62,6.14,6.14,0,0,0-2.6-.56,5.17,5.17,0,0,0-3.85,1.38,5.35,5.35,0,0,0-1.36,3.91v3.59a5.5,5.5,0,0,0,1.36,4,5.14,5.14,0,0,0,3.85,1.4,5.77,5.77,0,0,0,2.6-.61,6.31,6.31,0,0,0,2.14-1.72l3.09,3a7.77,7.77,0,0,1-3.29,2.53A11.42,11.42,0,0,1,70,189.11Z"/><path class="cls-5" d="M86.37,167v13.25a5,5,0,0,0,1.16,3.53A4.27,4.27,0,0,0,90.82,185a4.49,4.49,0,0,0,3.27-1.12,4.23,4.23,0,0,0,1.14-3.16l.29,4.56a6.4,6.4,0,0,1-2,2.63,6,6,0,0,1-3.85,1.17,6.92,6.92,0,0,1-5.57-2.32,9.84,9.84,0,0,1-2-6.54V167Zm8.86,21.79V167h4.26v21.79Z"/><path class="cls-5" d="M106,188.79V167h4.28v21.79Zm12-16.63a3.6,3.6,0,0,0-1.43-1,5.32,5.32,0,0,0-2-.35,4.26,4.26,0,0,0-3.16,1.12,4.22,4.22,0,0,0-1.13,3.12l-.44-4.2a8,8,0,0,1,2.6-3,6.21,6.21,0,0,1,3.53-1.09,8.13,8.13,0,0,1,2.7.43,6,6,0,0,1,2.11,1.27Z"/><path class="cls-5" d="M132.86,189.11a9.48,9.48,0,0,1-7.06-2.54c-1.66-1.7-2.5-4.11-2.5-7.23v-2.45q0-4.87,2.41-7.54a8.64,8.64,0,0,1,6.77-2.67,7.47,7.47,0,0,1,6.37,3c1.5,2,2.26,4.84,2.26,8.48v1.43h-14.7v-3.45H137a7.29,7.29,0,0,0-1.37-4.13,3.84,3.84,0,0,0-3.18-1.49,4.65,4.65,0,0,0-3.76,1.59,6.81,6.81,0,0,0-1.34,4.52v2.77a5.62,5.62,0,0,0,1.43,4.15,5.44,5.44,0,0,0,4.05,1.45,6.79,6.79,0,0,0,2.58-.52,7.48,7.48,0,0,0,2.29-1.47l2.81,2.81a11.92,11.92,0,0,1-3.63,2.41A10.51,10.51,0,0,1,132.86,189.11Z"/><path class="cls-5" d="M294.57,189.11a20,20,0,0,1-4.19-.42,15.74,15.74,0,0,1-3.67-1.26,15.56,15.56,0,0,1-3.21-2.1l2.67-3.28a11.92,11.92,0,0,0,3.84,2.27,13.47,13.47,0,0,0,4.56.76,9.14,9.14,0,0,0,5.14-1.24,4,4,0,0,0,1.83-3.47v0a3.65,3.65,0,0,0-.92-2.67,5.75,5.75,0,0,0-2.43-1.37,27.15,27.15,0,0,0-3.29-.75c-1.14-.19-2.3-.42-3.47-.69a11.18,11.18,0,0,1-3.22-1.25,6.33,6.33,0,0,1-2.37-2.44,8.83,8.83,0,0,1-.89-4.27v0a8.08,8.08,0,0,1,2.84-6.6c1.89-1.56,4.55-2.34,8-2.34a14.86,14.86,0,0,1,4.8.79,16.66,16.66,0,0,1,4.58,2.4l-2.43,3.4a13.63,13.63,0,0,0-3.48-1.93,10.07,10.07,0,0,0-3.47-.63,8.2,8.2,0,0,0-4.86,1.25,4.09,4.09,0,0,0-1.74,3.54v0a3.33,3.33,0,0,0,1,2.62,6.33,6.33,0,0,0,2.64,1.34c1.08.28,2.25.55,3.49.8s2.24.5,3.36.81a11.17,11.17,0,0,1,3.06,1.37,6.5,6.5,0,0,1,2.2,2.44,8.66,8.66,0,0,1,.83,4.06v0a7.83,7.83,0,0,1-2.94,6.53Q299.9,189.11,294.57,189.11Z"/><path class="cls-5" d="M318.42,189.11c-2.67,0-4.68-.56-6-1.66a6.24,6.24,0,0,1-2-5.08,6.1,6.1,0,0,1,1.84-4.86,8.16,8.16,0,0,1,5.51-1.61h6.19l.3,3.44h-6.47a3.64,3.64,0,0,0-2.5.75,2.9,2.9,0,0,0-.84,2.28,2.81,2.81,0,0,0,1.11,2.45,5.7,5.7,0,0,0,3.34.8,9.75,9.75,0,0,0,3.66-.52,1.73,1.73,0,0,0,1.21-1.64l.44,3.06a4.85,4.85,0,0,1-1.4,1.45,6.2,6.2,0,0,1-1.92.85A9.69,9.69,0,0,1,318.42,189.11Zm5.33-.32V175a4.61,4.61,0,0,0-1.14-3.33,4.31,4.31,0,0,0-3.25-1.19,8.39,8.39,0,0,0-2.52.39A7.36,7.36,0,0,0,314.6,172l-3.13-2.14a8.27,8.27,0,0,1,3.27-2.32,11.82,11.82,0,0,1,4.5-.83,8.9,8.9,0,0,1,6.34,2.12,7.84,7.84,0,0,1,2.25,6v14Z"/><path class="cls-5" d="M332.66,170.65V167h10.89v3.65ZM335,188.79V164a6.25,6.25,0,0,1,1.32-4.33,5.32,5.32,0,0,1,4.11-1.45h3.15v4.08h-3.06a1,1,0,0,0-.95.49,2.31,2.31,0,0,0-.29,1.17v24.79Z"/><path class="cls-5" d="M356.26,189.11a9.48,9.48,0,0,1-7.06-2.54q-2.51-2.55-2.5-7.23v-2.45q0-4.87,2.41-7.54a8.64,8.64,0,0,1,6.77-2.67,7.49,7.49,0,0,1,6.37,3c1.5,2,2.26,4.84,2.26,8.48v1.43h-14.7v-3.45h10.62a7.29,7.29,0,0,0-1.37-4.13,3.84,3.84,0,0,0-3.18-1.49,4.65,4.65,0,0,0-3.76,1.59,6.81,6.81,0,0,0-1.35,4.52v2.77a5.63,5.63,0,0,0,1.44,4.15,5.44,5.44,0,0,0,4.05,1.45,6.79,6.79,0,0,0,2.58-.52,7.6,7.6,0,0,0,2.29-1.47l2.81,2.81a11.92,11.92,0,0,1-3.63,2.41A10.51,10.51,0,0,1,356.26,189.11Z"/></g></g></svg>